<!DOCTYPE svg PUBLIC "-//W3C//DTD SVG 1.1//EN" "http://www.w3.org/Graphics/SVG/1.1/DTD/svg11.dtd">
<!-- Uploaded to: SVG Repo, www.svgrepo.com, Transformed by: SVG Repo Mixer Tools -->
<svg version="1.1" id="Layer_1" xmlns="http://www.w3.org/2000/svg" xmlns:xlink="http://www.w3.org/1999/xlink" viewBox="0 0 512 512" xml:space="preserve" width="800px" height="800px" fill="#FFA500">
<g id="SVGRepo_bgCarrier" stroke-width="0"/>
<g id="SVGRepo_tracerCarrier" stroke-linecap="round" stroke-linejoin="round"/>
<g id="SVGRepo_iconCarrier"> <circle style="fill:#FFA5008E99B;" cx="385.438" cy="132.315" r="109.303"/> <path style="fill:#FFA500;" d="M385.438,23.011v218.607c60.367,0,109.303-48.937,109.303-109.303S445.805,23.011,385.438,23.011z"/> <path style="fill:#E8F4FC;" d="M11.506,316.405c0-41.303,33.484-74.787,74.787-74.787c0-82.607,66.966-149.573,149.573-149.573 s149.573,66.966,149.573,149.573c41.303,0,74.787,33.484,74.787,74.787"/> <g> <rect y="339.416" style="fill:#D1E5F5;" width="477.483" height="34.517"/> <rect y="454.472" style="fill:#D1E5F5;" width="477.483" height="34.517"/> <rect x="34.517" y="396.944" style="fill:#D1E5F5;" width="477.483" height="34.517"/> <path style="fill:#D1E5F5;" d="M385.438,241.618c0-82.607-66.966-149.573-149.573-149.573v224.36h224.36 C460.225,275.102,426.741,241.618,385.438,241.618z"/> </g> </g>
</svg>