<!DOCTYPE svg PUBLIC "-//W3C//DTD SVG 1.1//EN" "http://www.w3.org/Graphics/SVG/1.1/DTD/svg11.dtd">
<!-- Uploaded to: SVG Repo, www.svgrepo.com, Transformed by: SVG Repo Mixer Tools -->
<svg width="800px" height="800px" viewBox="0 0 1024 1024" class="icon" version="1.1" xmlns="http://www.w3.org/2000/svg" fill="#000000">
<g id="SVGRepo_bgCarrier" stroke-width="0"/>
<g id="SVGRepo_tracerCarrier" stroke-linecap="round" stroke-linejoin="round"/>
<g id="SVGRepo_iconCarrier">
<path d="M503.53152 334.1824m-262.5024 0a262.5024 262.5024 0 1 0 525.0048 0 262.5024 262.5024 0 1 0-525.0048 0Z" fill="#FA870B"/>
<path d="M279.42912 715.22304v-0.04096l-3.47136 0.04096C164.33152 715.22304 73.6256 626.44224 71.71072 516.1984L71.68 512.6656C71.68 400.7936 163.14368 310.09792 275.968 310.09792c102.912 0 188.04736 75.4688 202.20928 173.62944h4.47488v-1.36192c0-127.32416 103.04512-230.77888 230.94272-232.83712l3.8912-0.03072C847.17568 249.4976 952.32 353.76128 952.32 482.3552c0 128.6144-105.14432 232.86784-234.83392 232.86784l2.60096-0.03072v0.03072H279.43936z" fill="#DFF1FB"/>
<path d="M241.02912 757.56544m42.3424 0l-0.01024 0q42.3424 0 42.3424 42.3424l0-0.01024q0 42.3424-42.3424 42.3424l0.01024 0q-42.3424 0-42.3424-42.3424l0 0.01024q0-42.3424 42.3424-42.3424Z" fill="#DFF1FB"/>
<path d="M393.45152 757.56544m42.3424 0l-0.01024 0q42.3424 0 42.3424 42.3424l0-0.01024q0 42.3424-42.3424 42.3424l0.01024 0q-42.3424 0-42.3424-42.3424l0 0.01024q0-42.3424 42.3424-42.3424Z" fill="#DFF1FB"/>
<path d="M545.87392 757.56544m42.3424 0l-0.01024 0q42.3424 0 42.3424 42.3424l0-0.01024q0 42.3424-42.3424 42.3424l0.01024 0q-42.3424 0-42.3424-42.3424l0 0.01024q0-42.3424 42.3424-42.3424Z" fill="#DFF1FB"/>
<path d="M698.28608 757.56544m42.3424 0l-0.01024 0q42.3424 0 42.3424 42.3424l0-0.01024q0 42.3424-42.3424 42.3424l0.01024 0q-42.3424 0-42.3424-42.3424l0 0.01024q0-42.3424 42.3424-42.3424Z" fill="#DFF1FB"/>
<path d="M622.08 867.64544m42.3424 0l-0.01024 0q42.3424 0 42.3424 42.3424l0-0.01024q0 42.3424-42.3424 42.3424l0.01024 0q-42.3424 0-42.3424-42.3424l0 0.01024q0-42.3424 42.3424-42.3424Z" fill="#DFF1FB"/>
<path d="M469.6576 867.64544m42.3424 0l-0.01024 0q42.3424 0 42.3424 42.3424l0-0.01024q0 42.3424-42.3424 42.3424l0.01024 0q-42.3424 0-42.3424-42.3424l0 0.01024q0-42.3424 42.3424-42.3424Z" fill="#DFF1FB"/>
<path d="M317.24544 867.64544m42.3424 0l-0.01024 0q42.3424 0 42.3424 42.3424l0-0.01024q0 42.3424-42.3424 42.3424l0.01024 0q-42.3424 0-42.3424-42.3424l0 0.01024q0-42.3424 42.3424-42.3424Z" fill="#DFF1FB"/>
</g>
</svg>